<?xml version="1.0" encoding="UTF-8"?>
<!-- Generator: visioncortex VTracer 0.6.3 -->
<svg version="1.1" xmlns="http://www.w3.org/2000/svg" width="1280" height="1280">
<path d="M0 0 C8.14 5.68 15.9 11.86 23.61 18.1 C28.32 21.85 33.16 25.42 38 29 C38.72 29.53 39.44 30.07 40.18 30.62 C49.28 37.38 58.38 44.07 67.82 50.33 C68.9 51.16 68.9 51.16 70 52 C70 52.66 70 53.32 70 54 C71.06 54.35 71.06 54.35 72.14 54.7 C75.57 56.26 77.92 58.28 80.75 60.75 C85.11 64.51 89.52 67.84 94.45 70.84 C95.22 71.42 95.22 71.42 96 72 C96 72.66 96 73.32 96 74 C96.66 74.21 97.32 74.41 98 74.62 C100.6 75.82 102.39 76.96 104.62 78.69 C118.99 89.87 118.99 89.87 136.13 93.83 C139.26 92.92 140.77 91.91 143.12 89.69 C143.8 89.06 144.48 88.43 145.17 87.79 C146.59 86.4 147.99 84.99 149.38 83.56 C151 82 151 82 153 82 C153 81.34 153 80.68 153 80 C164.43 69.93 178.99 62.84 192.59 56.19 C197.86 53.6 203.05 50.86 208.25 48.12 C216.4 43.85 224.6 39.67 232.85 35.59 C237.54 33.26 242.17 30.85 246.78 28.36 C270.06 15.76 270.06 15.76 284 18 C292.35 20.95 299.37 28.24 306.11 33.83 C310.03 37.06 314.1 40.04 318.23 42.98 C322.14 45.83 325.92 48.84 329.71 51.84 C332.62 54.16 335.56 56.43 338.56 58.63 C339.4 59.25 339.4 59.25 340.25 59.88 C341.79 61 343.33 62.11 344.87 63.22 C345.57 63.81 346.27 64.4 347 65 C347 65.66 347 66.32 347 67 C347.71 67.24 348.42 67.47 349.15 67.71 C352.5 69.23 354.79 71.15 357.56 73.56 C363.52 78.65 369.67 83.39 376 88 C376.68 88.5 377.37 89 378.07 89.51 C382.65 92.85 387.25 96.17 391.86 99.46 C393.8 100.85 395.73 102.25 397.66 103.66 C411.96 113.94 428.33 118.85 444.88 124.38 C445.6 124.62 446.33 124.86 447.08 125.11 C455.71 128 464.35 130.77 473.12 133.19 C480.57 135.25 487.93 137.53 495.25 140 C496.19 140.31 497.13 140.62 498.1 140.93 C507.22 144.08 514.3 148.48 520.38 156 C520.83 156.56 521.28 157.11 521.75 157.69 C523.18 159.45 524.59 161.22 526 163 C526.46 163.58 526.92 164.16 527.4 164.75 C532.74 171.45 537.96 178.24 543.16 185.04 C546.87 189.86 550.66 194.61 554.47 199.35 C557.82 203.52 561.14 207.72 564.44 211.94 C572.08 221.7 579.95 231.28 587.81 240.88 C590.48 244.13 593.13 247.4 595.75 250.69 C599.29 255.12 602.86 259.53 606.44 263.94 C607.28 264.98 607.28 264.98 608.15 266.04 C611.29 269.91 614.46 273.77 617.62 277.62 C620.94 281.66 624.17 285.76 627.38 289.88 C631.51 295.18 635.79 300.35 640.16 305.46 C642.65 308.38 645.06 311.32 647.38 314.38 C650.55 318.52 653.94 322.44 657.38 326.38 C681.56 354.12 681.56 354.12 681 363 C679 365 679 365 676.38 365.41 C671.79 364.85 668.75 362.92 664.88 360.5 C663.74 359.81 663.74 359.81 662.59 359.11 C657.39 355.93 652.3 352.6 647.26 349.18 C640.76 344.84 634.11 340.73 627.49 336.57 C625.05 335.03 622.62 333.49 620.19 331.95 C611.58 326.49 602.95 321.09 594.22 315.83 C590.62 313.65 587.08 311.4 583.59 309.05 C578.89 305.89 574.07 302.98 569.19 300.12 C567.94 299.38 567.94 299.38 566.67 298.62 C565.86 298.15 565.06 297.68 564.23 297.2 C563.51 296.77 562.79 296.35 562.06 295.91 C559.77 294.73 559.77 294.73 556 295 C554.69 297.62 554.56 300.02 554.19 302.94 C551.74 319.36 551.74 319.36 546 324 C543.62 324.5 543.62 324.5 541 324 C537.49 320.74 534.33 317.18 531.12 313.62 C526.91 308.99 522.55 304.52 518.1 300.11 C517.32 299.33 517.32 299.33 516.53 298.54 C513.88 295.92 511.23 293.3 508.57 290.7 C507.58 289.72 506.6 288.75 505.61 287.77 C504.28 286.46 504.28 286.46 502.92 285.13 C501 283 501 283 501 281 C500.04 280.6 500.04 280.6 499.06 280.19 C497 279 497 279 496 276 C495.34 276 494.68 276 494 276 C492.74 274.68 492.74 274.68 491.31 272.88 C489.21 270.33 487.11 268.15 484.56 266.06 C482.05 264 479.92 261.85 477.83 259.37 C473.82 254.72 469.54 250.39 465.19 246.06 C464.43 245.3 463.66 244.53 462.88 243.74 C462.15 243.01 461.42 242.28 460.67 241.54 C460.01 240.88 459.35 240.22 458.68 239.55 C457.07 237.92 457.07 237.92 455 237 C455 236.34 455 235.68 455 235 C454.34 235 453.68 235 453 235 C451.48 233.39 451.48 233.39 449.75 231.25 C446.76 227.72 443.98 225.33 440 223 C435.91 225.19 433.19 227.72 430.12 231.19 C428.82 232.66 428.82 232.66 427.48 234.16 C426.66 235.1 425.84 236.04 425 237 C424.38 237.71 423.75 238.42 423.11 239.15 C422 240.42 420.89 241.7 419.78 242.97 C416.95 246.19 414.08 249.36 411.2 252.54 C409.18 254.8 407.21 257.11 405.25 259.44 C402.76 262.27 400.62 264.67 397 266 C394.31 265.44 394.31 265.44 392 264 C390.2 261.1 389.72 258.78 389.59 255.41 C389.55 254.48 389.51 253.54 389.47 252.59 C389.44 251.57 389.41 250.55 389.38 249.5 C389.34 248.43 389.3 247.36 389.26 246.26 C389.04 239.37 388.98 232.48 389.01 225.59 C389.02 224.38 389.02 224.38 389.02 223.15 C389.04 219.15 389.07 215.15 389.12 211.15 C389.14 209.66 389.15 208.17 389.16 206.68 C389.18 205.37 389.19 204.05 389.21 202.7 C388.95 198.13 388.49 193.85 385.54 190.19 C384.99 189.77 384.43 189.34 383.86 188.9 C383.23 188.41 382.61 187.93 381.97 187.42 C381.32 186.95 380.67 186.48 380 186 C379.07 185.32 379.07 185.32 378.12 184.63 C376.21 183.27 374.26 181.94 372.31 180.62 C371.61 180.15 370.92 179.67 370.2 179.18 C365.12 175.74 360.02 172.34 354.91 168.95 C350.74 166.16 346.62 163.29 342.5 160.43 C339.3 158.21 336.1 156 332.9 153.81 C330.84 152.39 328.79 150.98 326.73 149.57 C324.52 148.04 322.3 146.53 320.08 145.03 C314.37 141.14 308.78 137.02 304 132 C304 131.34 304 130.68 304 130 C303.34 130 302.68 130 302 130 C300.08 127.79 298.28 125.57 296.5 123.25 C296 122.62 295.5 121.98 294.99 121.33 C292.64 118.31 290.64 115.47 289 112 C288.34 112 287.68 112 287 112 C285.52 110.53 285.52 110.53 283.81 108.5 C282.88 107.4 282.88 107.4 281.93 106.28 C281.29 105.53 280.66 104.78 280 104 C278.81 102.67 277.63 101.33 276.44 100 C273.07 96.16 270 92.13 267 88 C264.28 88.05 262.55 88.46 260.59 90.41 C259.06 92.35 257.61 94.34 256.19 96.38 C255.66 97.11 255.13 97.84 254.58 98.59 C253.52 100.06 252.47 101.53 251.42 103.01 C249.67 105.47 247.86 107.89 246.06 110.31 C241.85 116.13 237.83 122.08 233.78 128.02 C230.86 132.31 227.9 136.57 224.81 140.75 C221.41 145.37 218.22 150.11 215.06 154.9 C211.66 160.04 208.18 165.12 204.69 170.19 C199.44 177.81 194.36 185.52 189.4 193.33 C180.81 206.73 180.81 206.73 175 209 C165.99 210.03 157.99 207.67 149.44 205.06 C148.16 204.68 146.87 204.31 145.59 203.93 C136.44 201.22 136.44 201.22 134 200 C130.92 199.52 128.08 199.47 125 200 C120.4 203.85 118.37 209.12 115.79 214.46 C113.73 218.54 111.46 222.45 109.12 226.38 C108.7 227.1 108.27 227.82 107.82 228.57 C106.96 230.01 106.1 231.46 105.24 232.91 C100.98 240.11 96.85 247.39 92.88 254.75 C90.52 259.11 88.02 263.36 85.43 267.59 C84.04 269.93 82.8 272.32 81.56 274.75 C79.19 279.03 76.37 282.66 72 285 C66.28 286.21 61.58 285.73 55.92 284.74 C54.61 284.53 54.61 284.53 53.28 284.31 C51.4 284 49.53 283.69 47.66 283.37 C42.73 282.53 37.79 281.73 32.85 280.93 C31.85 280.76 30.86 280.6 29.83 280.43 C21.05 278.99 12.25 277.65 3.44 276.39 C1.95 276.17 0.46 275.96 -1.02 275.74 C-3.08 275.44 -5.15 275.14 -7.21 274.85 C-8.93 274.6 -8.93 274.6 -10.69 274.35 C-17.23 273.66 -22.34 274.08 -28.44 276.5 C-29.13 276.77 -29.82 277.03 -30.53 277.31 C-40.65 281.33 -50.21 286.47 -59.75 291.69 C-67.76 296.04 -76.05 299.78 -84.33 303.58 C-94.29 308.16 -104.15 312.93 -114 317.75 C-123.27 322.29 -132.55 326.78 -142 330.94 C-150.85 334.83 -159.34 339.3 -167.86 343.87 C-172.04 346.08 -176.27 348.17 -180.51 350.27 C-183.09 351.55 -185.65 352.85 -188.21 354.17 C-189.28 354.72 -189.28 354.72 -190.37 355.28 C-191.75 355.99 -193.13 356.7 -194.5 357.42 C-198.33 359.38 -201.7 360.66 -206 361 C-208.37 360.06 -208.37 360.06 -210 359 C-211.1 350.84 -207.57 345.58 -203 339 C-201.31 336.98 -199.55 335.05 -197.77 333.11 C-189.13 322.77 -184.14 309.2 -185.18 295.66 C-186.84 285.77 -194.22 278.76 -202 273 C-213.82 265.09 -227.21 263.25 -241 261 C-241.84 260.86 -242.68 260.73 -243.54 260.58 C-292.24 250.83 -292.24 250.83 -339 262.12 C-340.18 262.7 -341.36 263.27 -342.58 263.86 C-350.28 267.6 -357.87 271.5 -365.41 275.54 C-371.13 278.58 -376.93 281.38 -382.8 284.1 C-393.22 288.94 -403.43 294.14 -413.56 299.56 C-419.14 302.54 -424.75 305.35 -430.5 307.99 C-437.45 311.19 -444.35 314.49 -451.25 317.81 C-451.88 318.12 -452.51 318.42 -453.16 318.73 C-461.84 322.91 -470.44 327.19 -478.84 331.89 C-484.87 335.19 -491.63 338.71 -498.56 337.25 C-501 336 -501 336 -502 335 C-502.47 330.13 -501.62 327.7 -498.81 323.75 C-498.08 322.71 -497.35 321.67 -496.6 320.61 C-496.19 320.03 -495.78 319.46 -495.35 318.88 C-493.87 316.82 -492.42 314.75 -490.96 312.68 C-485.16 304.47 -479.16 296.55 -472.56 288.96 C-470.07 286.08 -467.65 283.15 -465.25 280.19 C-464.52 279.3 -463.79 278.4 -463.03 277.48 C-461.79 275.96 -460.56 274.44 -459.34 272.89 C-450.5 262.05 -437.87 254.79 -426.19 247.39 C-422.61 245.12 -419.06 242.81 -415.5 240.5 C-414.08 239.58 -412.65 238.66 -411.23 237.74 C-408.46 235.95 -405.69 234.15 -402.93 232.36 C-386.95 221.99 -370.9 211.76 -354.7 201.76 C-343.4 194.79 -332.16 187.7 -321 180.5 C-315.41 176.9 -309.8 173.32 -304.19 169.75 C-303.41 169.25 -302.63 168.76 -301.83 168.25 C-285.63 157.98 -274.86 156.48 -255.91 160.56 C-253.07 161.21 -250.26 161.95 -247.44 162.69 C-241.28 164.31 -241.28 164.31 -235 164 C-227.8 159.49 -222.1 151.86 -216.44 145.59 C-215.15 144.16 -213.85 142.74 -212.55 141.32 C-207.75 136.07 -203.24 130.65 -198.85 125.05 C-198.24 124.38 -197.63 123.7 -197 123 C-196.34 123 -195.68 123 -195 123 C-194.76 122.44 -194.53 121.89 -194.29 121.32 C-192.69 118.44 -190.69 116.34 -188.44 113.94 C-185.06 110.31 -181.84 106.63 -178.75 102.75 C-173.87 96.69 -168.55 91.09 -163.22 85.43 C-159.24 81.21 -155.43 76.87 -151.68 72.44 C-148.6 68.8 -145.49 65.18 -142.36 61.58 C-141.26 60.3 -140.19 59.01 -139.12 57.71 C-129.79 47.18 -114.74 41.21 -102.28 35.12 C-98.33 33.18 -94.45 31.14 -90.57 29.08 C-79.16 23.05 -67.61 17.33 -56 11.69 C-55.22 11.31 -54.44 10.93 -53.63 10.54 C-48.43 8.01 -43.22 5.5 -38 3 C-37.28 2.66 -36.56 2.31 -35.82 1.96 C-33.76 0.97 -31.69 -0 -29.62 -0.98 C-27.85 -1.82 -27.85 -1.82 -26.04 -2.68 C-16.45 -6.85 -8.7 -5.57 0 0 Z M-32.25 55.12 C-34.27 56.9 -34.27 56.9 -34.25 59.69 C-34.17 60.45 -34.09 61.21 -34 62 C-34.66 62 -35.32 62 -36 62 C-36 62.66 -36 63.32 -36 64 C-36.99 64.33 -37.98 64.66 -39 65 C-39.7 66.65 -40.36 68.32 -41 70 C-42 71 -43 72 -44 73 C-44.31 73.85 -44.62 74.69 -44.94 75.56 C-46 78 -46 78 -48.12 79.31 C-49.05 79.65 -49.05 79.65 -50 80 C-49.67 81.65 -49.34 83.3 -49 85 C-50.98 85.66 -52.96 86.32 -55 87 C-54.85 88.14 -54.85 88.14 -54.69 89.31 C-54.84 90.64 -54.84 90.64 -55 92 C-56.67 93 -58.33 94 -60 95 C-60 95.82 -60 96.65 -60 97.5 C-60 98.32 -60 99.15 -60 100 C-61.66 101.01 -63.33 102.01 -65 103 C-65.73 104.98 -66.4 106.98 -67 109 C-67.99 109.66 -68.98 110.32 -70 111 C-70.25 113.58 -70.25 113.58 -70 116 C-70.66 116 -71.32 116 -72 116 C-72 116.66 -72 117.32 -72 118 C-72.99 118.33 -73.98 118.66 -75 119 C-75.31 119.8 -75.62 120.61 -75.94 121.44 C-77 124 -77 124 -79.12 125.31 C-79.74 125.54 -80.36 125.77 -81 126 C-80.92 126.76 -80.84 127.53 -80.75 128.31 C-80.83 129.2 -80.91 130.09 -81 131 C-82.33 132 -83.67 133 -85 134 C-85.33 136.63 -85.33 136.63 -85 139 C-85.58 139.25 -86.15 139.5 -86.75 139.75 C-91.2 142.22 -93.49 145.67 -96 150 C-96.66 150.66 -97.32 151.32 -98 152 C-98.31 152.8 -98.62 153.61 -98.94 154.44 C-100.02 157.05 -101.05 158.05 -103 160 C-103.33 160.85 -103.66 161.69 -104 162.56 C-105 165 -105 165 -108 167 C-108.67 168.66 -109.34 170.33 -110 172 C-111.31 173.68 -112.65 175.35 -114 177 C-114.29 177.74 -114.58 178.49 -114.88 179.25 C-116 181 -116 181 -119.12 181.75 C-120.07 181.83 -121.02 181.91 -122 182 C-122 182.33 -122 182.66 -122 183 C-123.65 183 -125.3 183 -127 183 C-127.33 182.34 -127.66 181.68 -128 181 C-130.52 180.64 -133.01 180.56 -135.55 180.44 C-138.4 179.93 -139.15 179.13 -141 177 C-145.77 175.41 -151.02 175.91 -156 176 C-156.33 175.01 -156.66 174.02 -157 173 C-159.41 171.85 -159.41 171.85 -162.31 171.12 C-163.28 170.84 -164.24 170.55 -165.24 170.26 C-168.02 169.75 -168.02 169.75 -170.36 171.18 C-172.45 173.09 -172.45 173.09 -172 177 C-172.99 177 -173.98 177 -175 177 C-175.27 177.93 -175.54 178.86 -175.81 179.81 C-176.96 182.9 -177.79 183.79 -180 186 C-180 187.32 -180 188.64 -180 190 C-180.66 190 -181.32 190 -182 190 C-182.33 191.65 -182.66 193.3 -183 195 C-183.66 195 -184.32 195 -185 195 C-185 196.65 -185 198.3 -185 200 C-185.99 200 -186.98 200 -188 200 C-187.9 200.74 -187.79 201.49 -187.69 202.25 C-188 205 -188 205 -190.5 207.06 C-191.32 207.7 -192.15 208.34 -193 209 C-193 210.32 -193 211.64 -193 213 C-193.66 213 -194.32 213 -195 213 C-195 214.65 -195 216.3 -195 218 C-195.99 218 -196.98 218 -198 218 C-198.27 218.93 -198.54 219.86 -198.81 220.81 C-199.97 223.92 -200.67 224.85 -203 227 C-205.4 230.47 -206 231.65 -206 236 C-206.66 236 -207.32 236 -208 236 C-208 237.65 -208 239.3 -208 241 C-208.66 241 -209.32 241 -210 241 C-213.18 243.38 -214.07 246.22 -215 250 C-214.59 252.14 -214.59 252.14 -214 254 C-213 254.06 -212 254.12 -210.97 254.18 C-209.68 254.27 -208.39 254.35 -207.06 254.44 C-205.13 254.56 -205.13 254.56 -203.16 254.68 C-200 255 -200 255 -199 256 C-197 256.23 -195.01 256.45 -193.01 256.62 C-191 257 -191 257 -188 259 C-185.58 259.37 -185.58 259.37 -182.89 259.41 C-181.42 259.47 -181.42 259.47 -179.92 259.53 C-178.89 259.56 -177.87 259.59 -176.81 259.62 C-175.26 259.68 -175.26 259.68 -173.67 259.74 C-171.12 259.84 -168.56 259.92 -166 260 C-165.67 260.66 -165.34 261.32 -165 262 C-162.68 262.41 -160.34 262.74 -158 263 C-157.67 263.99 -157.34 264.98 -157 266 C-156.01 266.99 -156.01 266.99 -155 268 C-154.73 270.53 -154.73 270.53 -154.75 273.5 C-154.74 274.97 -154.74 274.97 -154.73 276.47 C-155 279 -155 279 -157 281 C-156.96 281.97 -156.92 282.94 -156.88 283.94 C-156.92 284.95 -156.96 285.96 -157 287 C-159 288.75 -159 288.75 -161 290 C-161 290.66 -161 291.32 -161 292 C-157.18 291.48 -155.63 290.74 -153 288 C-150.81 287.31 -150.81 287.31 -149 287 C-149 286.34 -149 285.68 -149 285 C-148.01 284.67 -147.02 284.34 -146 284 C-146 283.34 -146 282.68 -146 282 C-145.24 282.08 -144.47 282.16 -143.69 282.25 C-142.8 282.17 -141.91 282.09 -141 282 C-139.96 280.7 -138.96 279.36 -138 278 C-136.35 277.3 -134.68 276.63 -133 276 C-132.48 275.48 -131.97 274.97 -131.44 274.44 C-129.7 272.7 -128.35 272.55 -126 272 C-125.67 271.34 -125.34 270.68 -125 270 C-124.22 269.69 -123.43 269.38 -122.62 269.06 C-119.99 268.2 -119.99 268.2 -118.44 266.44 C-116.71 264.71 -115.38 264.41 -113 264 C-113 263.34 -113 262.68 -113 262 C-112.01 261.67 -111.02 261.34 -110 261 C-110 260.34 -110 259.68 -110 259 C-109.24 259.08 -108.47 259.16 -107.69 259.25 C-106.8 259.17 -105.91 259.09 -105 259 C-103.96 257.7 -102.96 256.36 -102 255 C-99.31 253.75 -99.31 253.75 -97 253 C-97 252.34 -97 251.68 -97 251 C-95.35 251 -93.7 251 -92 251 C-92 250.34 -92 249.68 -92 249 C-91.34 249 -90.68 249 -90 249 C-89.67 248.34 -89.34 247.68 -89 247 C-87.79 246.57 -87.79 246.57 -86.56 246.12 C-83.86 245.23 -83.86 245.23 -82.69 242.88 C-82.35 241.95 -82.35 241.95 -82 241 C-80.35 241 -78.7 241 -77 241 C-77 240.34 -77 239.68 -77 239 C-76.34 239 -75.68 239 -75 239 C-74.67 238.34 -74.34 237.68 -74 237 C-73.22 236.69 -72.43 236.38 -71.62 236.06 C-68.99 235.2 -68.99 235.2 -67.44 233.44 C-65.7 231.7 -64.35 231.55 -62 231 C-61.67 230.34 -61.34 229.68 -61 229 C-58.67 228 -56.33 227 -54 226 C-53.67 225.34 -53.34 224.68 -53 224 C-50.94 223.38 -50.94 223.38 -49 223 C-49 222.34 -49 221.68 -49 221 C-48.01 220.67 -47.02 220.34 -46 220 C-46 219.34 -46 218.68 -46 218 C-45.24 218.08 -44.47 218.16 -43.69 218.25 C-42.8 218.17 -41.91 218.09 -41 218 C-39.96 216.7 -38.96 215.36 -38 214 C-37.15 213.67 -36.31 213.34 -35.44 213 C-32.85 212.22 -32.85 212.22 -31.69 209.88 C-31.35 208.95 -31.35 208.95 -31 208 C-30.24 208.06 -29.47 208.12 -28.69 208.19 C-25.98 208.24 -25.98 208.24 -24.19 206.62 C-22.8 205.07 -22.8 205.07 -23 203 C-22.28 202.88 -21.56 202.75 -20.81 202.62 C-18.04 202.01 -15.6 201.12 -13 200 C-13 199.34 -13 198.68 -13 198 C-12.34 198 -11.68 198 -11 198 C-10.67 197.34 -10.34 196.68 -10 196 C-9.22 195.69 -8.43 195.38 -7.62 195.06 C-4.99 194.2 -4.99 194.2 -3.44 192.44 C-1.68 190.68 -0.37 190.59 2 190 C3.77 188.65 3.77 188.65 5 187 C5 186.34 5 185.68 5 185 C6.65 185 8.3 185 10 185 C10.33 184.34 10.66 183.68 11 183 C13.56 182.38 13.56 182.38 16 182 C16.33 182.99 16.66 183.98 17 185 C17.64 185.06 18.28 185.12 18.93 185.18 C19.76 185.27 20.59 185.35 21.44 185.44 C22.67 185.56 22.67 185.56 23.93 185.68 C26 186 26 186 27 187 C29.32 187.28 31.64 187.45 33.97 187.62 C34.64 187.75 35.31 187.87 36 188 C36.33 188.66 36.66 189.32 37 190 C40.3 190 43.6 190 47 190 C47 190.66 47 191.32 47 192 C49.27 192.08 51.54 192.14 53.81 192.19 C55.08 192.22 56.34 192.26 57.64 192.29 C60.91 192.27 60.91 192.27 62.95 190.74 C64.34 188.77 64.34 188.77 64 185 C64.66 185 65.32 185 66 185 C67.67 183.67 67.67 183.67 69 182 C69 181.34 69 180.68 69 180 C69.66 180 70.32 180 71 180 C72.67 178.67 72.67 178.67 74 177 C74 176.34 74 175.68 74 175 C75.49 174.5 75.49 174.5 77 174 C77 173.34 77 172.68 77 172 C77.66 172 78.32 172 79 172 C80.94 170.45 81.89 169.51 82.44 167.06 C83.2 164.26 84.97 163.03 87 161 C87.31 158.06 87.31 158.06 85.75 156.44 C83.91 154.93 82.13 154.03 80 153 C79.3 152.46 78.6 151.93 77.88 151.38 C76.12 149.8 76.12 149.8 74 150 C74 148.68 74 147.36 74 146 C73.15 145.73 72.29 145.47 71.41 145.2 C70.31 144.84 69.2 144.49 68.06 144.12 C66.96 143.78 65.86 143.43 64.72 143.07 C62 142 62 142 61 140 C60.34 140 59.68 140 59 140 C58.96 139.38 58.92 138.76 58.88 138.12 C58.44 137.07 58.44 137.07 58 136 C56.02 135.28 54.02 134.62 52 134 C51.34 133.01 50.68 132.02 50 131 C49.01 131 48.02 131 47 131 C46.67 130.34 46.34 129.68 46 129 C45.34 129 44.68 129 44 129 C42.33 127.33 40.67 125.67 39 124 C36.82 122.71 34.85 121.95 32.44 121.19 C29.36 119.69 28.6 117.96 27 115 C25.67 114.34 24.34 113.69 23 113.06 C20.26 111.61 18.91 109.87 17.06 107.38 C16.38 106.59 15.7 105.81 15 105 C14.01 105 13.02 105 12 105 C11.9 104.44 11.79 103.89 11.69 103.31 C10.12 98.04 6.87 94.77 3 91 C2.67 90.34 2.34 89.68 2 89 C1.34 89 0.68 89 0 89 C-0.08 88.24 -0.16 87.47 -0.25 86.69 C-1.17 83.39 -2.23 82.87 -5 81 C-5.52 80.28 -6.03 79.56 -6.56 78.81 C-7.04 78.21 -7.51 77.62 -8 77 C-8.99 77 -9.98 77 -11 77 C-11 75.68 -11 74.36 -11 73 C-11.66 73 -12.32 73 -13 73 C-13.06 72.44 -13.12 71.89 -13.19 71.31 C-14.33 68.05 -16.54 66.4 -19 64 C-20.35 62.01 -21.69 60.01 -23 58 C-24.61 56.06 -25.65 55.16 -27.94 54.12 C-30.11 53.82 -30.11 53.82 -32.25 55.12 Z M31 120 C35 121 35 121 35 121 Z M225 131 C226 133 226 133 226 133 Z M222 135 C223 137 223 137 223 137 Z M220 138 C219.67 138.99 219.34 139.98 219 141 C219.66 141 220.32 141 221 141 C220.67 140.01 220.34 139.02 220 138 Z M62 140 C62 140.66 62 141.32 62 142 C63.32 141.67 64.64 141.34 66 141 C64.68 140.67 63.36 140.34 62 140 Z M215 146 C214.67 146.66 214.34 147.32 214 148 C214.66 148 215.32 148 216 148 C215.67 147.34 215.34 146.68 215 146 Z M212 150 C211.67 150.66 211.34 151.32 211 152 C211.66 152 212.32 152 213 152 C212.67 151.34 212.34 150.68 212 150 Z M207 157 C206.67 157.99 206.34 158.98 206 160 C206.66 160 207.32 160 208 160 C207.67 159.01 207.34 158.02 207 157 Z M204 162 C205 164 205 164 205 164 Z M202 165 C201.67 165.66 201.34 166.32 201 167 C201.66 167 202.32 167 203 167 C202.67 166.34 202.34 165.68 202 165 Z M199 169 C200 171 200 171 200 171 Z M-162 171 C-162 171.33 -162 171.66 -162 172 C-160.35 172 -158.7 172 -157 172 C-157 171.67 -157 171.34 -157 171 C-158.65 171 -160.3 171 -162 171 Z M-155 174 C-155 174.33 -155 174.66 -155 175 C-152.36 175 -149.72 175 -147 175 C-147 174.67 -147 174.34 -147 174 C-149.64 174 -152.28 174 -155 174 Z M194 177 C193.67 177.66 193.34 178.32 193 179 C193.66 179 194.32 179 195 179 C194.67 178.34 194.34 177.68 194 177 Z M-138 179 C-138 179.33 -138 179.66 -138 180 C-135.03 180 -132.06 180 -129 180 C-129 179.67 -129 179.34 -129 179 C-131.97 179 -134.94 179 -138 179 Z M-127 181 C-127 181.66 -127 182.32 -127 183 C-126.01 182.67 -125.02 182.34 -124 182 C-124.99 181.67 -125.98 181.34 -127 181 Z M189 184 C190 186 190 186 190 186 Z M175 203 C175 203.66 175 204.32 175 205 C174.01 205.5 174.01 205.5 173 206 C173.99 206 174.98 206 176 206 C175.67 205.01 175.34 204.02 175 203 Z M115 206 C114.67 206.66 114.34 207.32 114 208 C114.66 208 115.32 208 116 208 C115.67 207.34 115.34 206.68 115 206 Z M112 210 C111.67 210.99 111.34 211.98 111 213 C111.66 213 112.32 213 113 213 C112.67 212.01 112.34 211.02 112 210 Z M110 214 C111 216 111 216 111 216 Z M107 219 C108 221 108 221 108 221 Z M102 228 C103 230 103 230 103 230 Z M99 233 C98.67 233.99 98.34 234.98 98 236 C98.66 236 99.32 236 100 236 C99.67 235.01 99.34 234.02 99 233 Z M97 237 C98 239 98 239 98 239 Z M94 242 C95 244 95 244 95 244 Z M-216 250 C-215 252 -215 252 -215 252 Z M87 255 C88 257 88 257 88 257 Z M84 260 C83.67 260.99 83.34 261.98 83 263 C83.66 263 84.32 263 85 263 C84.67 262.01 84.34 261.02 84 260 Z M396 261 C397 263 397 263 397 263 Z M79 269 C78.67 269.99 78.34 270.98 78 272 C78.66 272 79.32 272 80 272 C79.67 271.01 79.34 270.02 79 269 Z M76 274 C75.67 274.99 75.34 275.98 75 277 C75.66 277 76.32 277 77 277 C76.67 276.01 76.34 275.02 76 274 Z M550 295 C551 298 551 298 551 298 Z M547 311 C548 314 548 314 548 314 Z M-136 322 C-135 324 -135 324 -135 324 Z " fill="#E2ECEE" transform="translate(550,388)"/>
<path d="M0 0 C0.33 0 0.66 0 1 0 C1.37 4.52 1.37 4.52 -0.38 6.81 C-2 8 -2 8 -4 8 C-4.33 9.32 -4.66 10.64 -5 12 C-5 10.35 -5 8.7 -5 7 C-4.34 7 -3.68 7 -3 7 C-2.67 6.01 -2.34 5.02 -2 4 C-1.34 4 -0.68 4 0 4 C0 2.68 0 1.36 0 0 Z " fill="#020608" transform="translate(458,533)"/>
<path d="M0 0 C0.33 0 0.66 0 1 0 C1 3.63 1 7.26 1 11 C0.67 11 0.34 11 0 11 C0 7.37 0 3.74 0 0 Z " fill="#020608" transform="translate(397,656)"/>
<path d="M0 0 C0.66 0.33 1.32 0.66 2 1 C1.34 2.65 0.68 4.3 0 6 C-0.66 5.67 -1.32 5.34 -2 5 C-1.34 3.35 -0.68 1.7 0 0 Z " fill="#020608" transform="translate(346,619)"/>
<path d="M0 0 C0.33 0.66 0.66 1.32 1 2 C0.34 2 -0.32 2 -1 2 C-1.33 3.32 -1.66 4.64 -2 6 C-2.33 4.68 -2.66 3.36 -3 2 C-2.01 1.34 -1.02 0.68 0 0 Z " fill="#020608" transform="translate(473,513)"/>
<path d="M0 0 C0.33 0.66 0.66 1.32 1 2 C0.34 2 -0.32 2 -1 2 C-1.33 3.32 -1.66 4.64 -2 6 C-2.33 4.68 -2.66 3.36 -3 2 C-2.01 1.34 -1.02 0.68 0 0 Z " fill="#020608" transform="translate(504,467)"/>
<path d="M0 0 C0.33 0.66 0.66 1.32 1 2 C0.34 2 -0.32 2 -1 2 C-1.33 3.32 -1.66 4.64 -2 6 C-2 4.35 -2 2.7 -2 1 C-1.34 0.67 -0.68 0.34 0 0 Z " fill="#020608" transform="translate(468,521)"/>
<path d="M0 0 C0.99 0.33 1.98 0.66 3 1 C2.34 1 1.68 1 1 1 C0.67 2.32 0.34 3.64 0 5 C0 3.35 0 1.7 0 0 Z " fill="#020608" transform="translate(481,499)"/>
<path d="M0 0 C0.99 0.5 0.99 0.5 2 1 C1.34 2.32 0.68 3.64 0 5 C0 3.35 0 1.7 0 0 Z " fill="#020608" transform="translate(353,607)"/>
<path d="M0 0 C0.33 0 0.66 0 1 0 C1 1.65 1 3.3 1 5 C0.34 4.67 -0.32 4.34 -1 4 C-0.67 2.68 -0.34 1.36 0 0 Z " fill="#020608" transform="translate(358,597)"/>
<path d="M0 0 C0.33 0 0.66 0 1 0 C1 1.65 1 3.3 1 5 C0.34 4.67 -0.32 4.34 -1 4 C-0.67 2.68 -0.34 1.36 0 0 Z " fill="#020608" transform="translate(371,574)"/>
<path d="M0 0 C0.99 0.5 0.99 0.5 2 1 C1.34 2.32 0.68 3.64 0 5 C0 3.35 0 1.7 0 0 Z " fill="#020608" transform="translate(376,566)"/>
<path d="M0 0 C0.66 0.33 1.32 0.66 2 1 C1.01 2.49 1.01 2.49 0 4 C-0.33 3.01 -0.66 2.02 -1 1 C-0.67 0.67 -0.34 0.34 0 0 Z " fill="#020608" transform="translate(438,563)"/>
<path d="M0 0 C0.99 0.5 0.99 0.5 2 1 C1.34 2.32 0.68 3.64 0 5 C0 3.35 0 1.7 0 0 Z " fill="#020608" transform="translate(448,548)"/>
<path d="M0 0 C0.66 0.33 1.32 0.66 2 1 C0.02 1.99 0.02 1.99 -2 3 C-1.34 2.01 -0.68 1.02 0 0 Z " fill="#020608" transform="translate(461,530)"/>
<path d="M0 0 C0.99 0.5 0.99 0.5 2 1 C1.34 2.32 0.68 3.64 0 5 C0 3.35 0 1.7 0 0 Z " fill="#020608" transform="translate(476,507)"/>
<path d="M0 0 C0.99 0.5 0.99 0.5 2 1 C1.34 2.32 0.68 3.64 0 5 C0 3.35 0 1.7 0 0 Z " fill="#020608" transform="translate(512,453)"/>
<path d="M0 0 C0.33 0 0.66 0 1 0 C1 1.65 1 3.3 1 5 C0.67 5 0.34 5 0 5 C0 3.35 0 1.7 0 0 Z " fill="#020608" transform="translate(366,584)"/>
<path d="M0 0 C0.33 1.32 0.66 2.64 1 4 C0.34 3.67 -0.32 3.34 -1 3 C-0.67 2.01 -0.34 1.02 0 0 Z " fill="#020608" transform="translate(368,580)"/>
<path d="M0 0 C0.66 0.33 1.32 0.66 2 1 C1.01 1.66 0.02 2.32 -1 3 C-0.67 2.01 -0.34 1.02 0 0 Z " fill="#020608" transform="translate(441,560)"/>
<path d="M0 0 C0.33 0 0.66 0 1 0 C1 1.65 1 3.3 1 5 C0.67 5 0.34 5 0 5 C0 3.35 0 1.7 0 0 Z " fill="#020608" transform="translate(486,492)"/>
<path d="M0 0 C0.99 0.5 0.99 0.5 2 1 C1.01 2.49 1.01 2.49 0 4 C0 2.68 0 1.36 0 0 Z " fill="#020608" transform="translate(507,461)"/>
<path d="M0 0 C1 4 1 4 1 4 Z " fill="#020608" transform="translate(338,633)"/>
<path d="M0 0 C1 4 1 4 1 4 Z " fill="#020608" transform="translate(343,625)"/>
<path d="M0 0 C1 4 1 4 1 4 Z " fill="#020608" transform="translate(348,615)"/>
<path d="M0 0 C1 4 1 4 1 4 Z " fill="#020608" transform="translate(356,602)"/>
<path d="M0 0 C1 4 1 4 1 4 Z " fill="#020608" transform="translate(379,561)"/>
<path d="M0 0 C1 4 1 4 1 4 Z " fill="#020608" transform="translate(443,556)"/>
<path d="M0 0 C0.99 0.33 1.98 0.66 3 1 C2.01 1.33 1.02 1.66 0 2 C0 1.34 0 0.68 0 0 Z " fill="#020608" transform="translate(496,476)"/>
<path d="M0 0 C1 4 1 4 1 4 Z " fill="#020608" transform="translate(517,446)"/>
<path d="" fill="#020608" transform="translate(0,0)"/>
<path d="M0 0 C0.33 0.66 0.66 1.32 1 2 C0.34 1.67 -0.32 1.34 -1 1 C-0.67 0.67 -0.34 0.34 0 0 Z " fill="#020608" transform="translate(340,631)"/>
<path d="M0 0 C0.33 0.66 0.66 1.32 1 2 C0.34 1.67 -0.32 1.34 -1 1 C-0.67 0.67 -0.34 0.34 0 0 Z " fill="#020608" transform="translate(350,613)"/>
<path d="M0 0 C0.99 0.5 0.99 0.5 2 1 C1.01 1.5 1.01 1.5 0 2 C0 1.34 0 0.68 0 0 Z " fill="#020608" transform="translate(363,589)"/>
<path d="M0 0 C0.33 0.66 0.66 1.32 1 2 C0.34 1.67 -0.32 1.34 -1 1 C-0.67 0.67 -0.34 0.34 0 0 Z " fill="#020608" transform="translate(373,572)"/>
<path d="M0 0 C0.33 0.66 0.66 1.32 1 2 C0.34 1.67 -0.32 1.34 -1 1 C-0.67 0.67 -0.34 0.34 0 0 Z " fill="#020608" transform="translate(445,554)"/>
<path d="M0 0 C0.99 0.5 0.99 0.5 2 1 C1.01 1.5 1.01 1.5 0 2 C0 1.34 0 0.68 0 0 Z " fill="#020608" transform="translate(491,484)"/>
<path d="M0 0 C0.66 0.66 1.32 1.32 2 2 C1.34 2 0.68 2 0 2 C0 1.34 0 0.68 0 0 Z " fill="#020608" transform="translate(547,472)"/>
<path d="M0 0 C2 1 2 1 2 1 Z " fill="#020608" transform="translate(395,668)"/>
<path d="M0 0 C2 1 2 1 2 1 Z " fill="#020608" transform="translate(336,637)"/>
<path d="M0 0 C2 1 2 1 2 1 Z " fill="#020608" transform="translate(351,612)"/>
<path d="M0 0 C2 1 2 1 2 1 Z " fill="#020608" transform="translate(359,596)"/>
<path d="M0 0 C2 1 2 1 2 1 Z " fill="#020608" transform="translate(374,571)"/>
<path d="" fill="#020608" transform="translate(0,0)"/>
<path d="M0 0 C2 1 2 1 2 1 Z " fill="#020608" transform="translate(436,568)"/>
<path d="" fill="#020608" transform="translate(0,0)"/>
<path d="M0 0 C2 1 2 1 2 1 Z " fill="#020608" transform="translate(446,553)"/>
<path d="" fill="#020608" transform="translate(0,0)"/>
<path d="M0 0 C2 1 2 1 2 1 Z " fill="#020608" transform="translate(451,545)"/>
<path d="" fill="#020608" transform="translate(0,0)"/>
<path d="M0 0 C2 1 2 1 2 1 Z " fill="#020608" transform="translate(474,512)"/>
<path d="M0 0 C2 1 2 1 2 1 Z " fill="#020608" transform="translate(487,491)"/>
<path d="" fill="#020608" transform="translate(0,0)"/>
<path d="M0 0 C2 1 2 1 2 1 Z " fill="#020608" transform="translate(495,481)"/>
<path d="" fill="#020608" transform="translate(0,0)"/>
<path d="M0 0 C2 1 2 1 2 1 Z " fill="#020608" transform="translate(510,458)"/>
<path d="M0 0 C2 1 2 1 2 1 Z " fill="#020608" transform="translate(518,445)"/>
<path d="" fill="#020608" transform="translate(0,0)"/>
<path d="" fill="#020608" transform="translate(0,0)"/>
<path d="" fill="#020608" transform="translate(0,0)"/>
<path d="" fill="#020608" transform="translate(0,0)"/>
<path d="" fill="#020608" transform="translate(0,0)"/>
<path d="" fill="#020608" transform="translate(0,0)"/>
<path d="" fill="#020608" transform="translate(0,0)"/>
<path d="" fill="#020608" transform="translate(0,0)"/>
<path d="" fill="#020608" transform="translate(0,0)"/>
<path d="" fill="#020608" transform="translate(0,0)"/>
<path d="" fill="#020608" transform="translate(0,0)"/>
<path d="" fill="#020608" transform="translate(0,0)"/>
<path d="" fill="#020608" transform="translate(0,0)"/>
<path d="" fill="#020608" transform="translate(0,0)"/>
<path d="" fill="#020608" transform="translate(0,0)"/>
<path d="" fill="#020608" transform="translate(0,0)"/>
<path d="" fill="#020608" transform="translate(0,0)"/>
<path d="" fill="#020608" transform="translate(0,0)"/>
<path d="" fill="#020608" transform="translate(0,0)"/>
<path d="" fill="#020608" transform="translate(0,0)"/>
<path d="" fill="#020608" transform="translate(0,0)"/>
<path d="" fill="#020608" transform="translate(0,0)"/>
<path d="" fill="#020608" transform="translate(0,0)"/>
<path d="" fill="#020608" transform="translate(0,0)"/>
<path d="" fill="#020608" transform="translate(0,0)"/>
<path d="" fill="#020608" transform="translate(0,0)"/>
<path d="" fill="#020608" transform="translate(0,0)"/>
<path d="" fill="#020608" transform="translate(0,0)"/>
<path d="" fill="#020608" transform="translate(0,0)"/>
<path d="" fill="#020608" transform="translate(0,0)"/>
<path d="" fill="#020608" transform="translate(0,0)"/>
<path d="" fill="#020608" transform="translate(0,0)"/>
<path d="" fill="#020608" transform="translate(0,0)"/>
<path d="" fill="#020608" transform="translate(0,0)"/>
<path d="" fill="#020608" transform="translate(0,0)"/>
<path d="" fill="#020608" transform="translate(0,0)"/>
<path d="" fill="#020608" transform="translate(0,0)"/>
<path d="" fill="#020608" transform="translate(0,0)"/>
<path d="" fill="#020608" transform="translate(0,0)"/>
<path d="" fill="#020608" transform="translate(0,0)"/>
<path d="" fill="#020608" transform="translate(0,0)"/>
<path d="" fill="#020608" transform="translate(0,0)"/>
<path d="" fill="#020608" transform="translate(0,0)"/>
</svg>
